<?xml version="1.0" encoding="UTF-8" standalone="no"?>
<!-- Created with Inkscape (http://www.inkscape.org/) -->

<svg
   version="1.1"
   id="svg1"
   width="666.66669"
   height="666.66669"
   viewBox="0 0 666.66669 666.66669"
   sodipodi:docname="5114854.eps"
   xmlns:inkscape="http://www.inkscape.org/namespaces/inkscape"
   xmlns:sodipodi="http://sodipodi.sourceforge.net/DTD/sodipodi-0.dtd"
   xmlns="http://www.w3.org/2000/svg"
   xmlns:svg="http://www.w3.org/2000/svg">
  <defs
     id="defs1" />
  <sodipodi:namedview
     id="namedview1"
     pagecolor="#ffffff"
     bordercolor="#000000"
     borderopacity="0.25"
     inkscape:showpageshadow="2"
     inkscape:pageopacity="0.0"
     inkscape:pagecheckerboard="0"
     inkscape:deskcolor="#d1d1d1">
    <inkscape:page
       x="0"
       y="0"
       inkscape:label="1"
       id="page1"
       width="666.66669"
       height="666.66669"
       margin="0"
       bleed="0" />
  </sodipodi:namedview>
  <g
     id="g1"
     inkscape:groupmode="layer"
     inkscape:label="1">
    <g
       id="group-R5">
      <path
         id="path2"
         d="M 5000,0 H 0 V 5000 H 5000 V 0"
         style="fill:#ffffff;fill-opacity:1;fill-rule:nonzero;stroke:none"
         transform="matrix(0.13333333,0,0,-0.13333333,0,666.66667)" />
      <path
         id="path3"
         d="m 2321.63,3814.11 c 0,0 -564.66,-24.86 -863.79,-615.28 -299.12,-590.42 -607.981,-406.13 -790.379,-938.72 -182.395,-532.6 185.41,-1138.24 431.959,-1203.86 246.55,-65.621 3062.74,0 3062.74,0 0,0 372.09,254.39 401.27,915.17 29.18,660.77 -525.3,881.46 -755.12,975.4 -229.81,93.94 -583.98,881.89 -1486.68,867.29"
         style="fill:#eff3ef;fill-opacity:1;fill-rule:nonzero;stroke:none"
         transform="matrix(0.13333333,0,0,-0.13333333,0,666.66667)" />
      <path
         id="path4"
         d="m 3130.71,2199.37 c 650.46,437.66 776.59,662.38 1097.65,704.17 C 5010.33,3005.31 4437.38,983.961 2646.71,552.02 1795.92,346.801 742.035,906.539 591.324,1341.43 c -145.715,420.45 246.598,578.18 825.866,352.67 579.27,-225.51 1382.11,282.29 1713.52,505.27 z"
         style="fill:none;stroke:#aeb8b2;stroke-width:10;stroke-linecap:butt;stroke-linejoin:miter;stroke-miterlimit:10;stroke-dasharray:none;stroke-opacity:1"
         transform="matrix(0.13333333,0,0,-0.13333333,0,666.66667)" />
      <path
         id="path5"
         d="m 3920.13,2698.46 c 0,-54.7 -44.34,-99.04 -99.04,-99.04 -54.69,0 -99.04,44.34 -99.04,99.04 0,54.69 44.35,99.04 99.04,99.04 54.7,0 99.04,-44.35 99.04,-99.04"
         style="fill:#d2d4d1;fill-opacity:1;fill-rule:nonzero;stroke:none"
         transform="matrix(0.13333333,0,0,-0.13333333,0,666.66667)" />
      <path
         id="path6"
         d="m 3880.21,752.441 c 0,-54.703 -44.34,-99.043 -99.04,-99.043 -54.7,0 -99.04,44.34 -99.04,99.043 0,54.7 44.34,99.028 99.04,99.028 54.7,0 99.04,-44.328 99.04,-99.028 z"
         style="fill:none;stroke:#aeb8b2;stroke-width:10;stroke-linecap:butt;stroke-linejoin:miter;stroke-miterlimit:10;stroke-dasharray:none;stroke-opacity:1"
         transform="matrix(0.13333333,0,0,-0.13333333,0,666.66667)" />
      <path
         id="path7"
         d="m 2590.25,3005.31 c 0,-54.7 -44.33,-99.04 -99.03,-99.04 -54.7,0 -99.04,44.34 -99.04,99.04 0,54.69 44.34,99.04 99.04,99.04 54.7,0 99.03,-44.35 99.03,-99.04 z"
         style="fill:none;stroke:#aeb8b2;stroke-width:10;stroke-linecap:butt;stroke-linejoin:miter;stroke-miterlimit:10;stroke-dasharray:none;stroke-opacity:1"
         transform="matrix(0.13333333,0,0,-0.13333333,0,666.66667)" />
      <path
         id="path8"
         d="M 2210.96,2609.64 2110.5,2469.8 h 190.92 z"
         style="fill:none;stroke:#aeb8b2;stroke-width:10;stroke-linecap:round;stroke-linejoin:round;stroke-miterlimit:10;stroke-dasharray:none;stroke-opacity:1"
         transform="matrix(0.13333333,0,0,-0.13333333,0,666.66667)" />
      <path
         id="path9"
         d="m 1738.86,833.23 -63.15,-121.589 h 190.91 z"
         style="fill:#d2d4d1;fill-opacity:1;fill-rule:nonzero;stroke:none"
         transform="matrix(0.13333333,0,0,-0.13333333,0,666.66667)" />
      <path
         id="path10"
         d="m 807.676,2371.84 c 0,-104.35 -84.594,-188.94 -188.946,-188.94 -104.351,0 -188.941,84.59 -188.941,188.94 0,104.35 84.59,188.94 188.941,188.94 104.352,0 188.946,-84.59 188.946,-188.94 z"
         style="fill:none;stroke:#aeb8b2;stroke-width:10;stroke-linecap:round;stroke-linejoin:round;stroke-miterlimit:10;stroke-dasharray:none;stroke-opacity:1"
         transform="matrix(0.13333333,0,0,-0.13333333,0,666.66667)" />
      <text
         id="text10"
         xml:space="preserve"
         transform="matrix(1.3333333,0,0,1.3333333,72.7464,368.88667)"><tspan
           id="tspan10"
           style="font-variant:normal;font-weight:normal;font-size:35.6206px;font-family:Alatsi-Regular;writing-mode:lr-tb;fill:#79d0a2;fill-opacity:1;fill-rule:nonzero;stroke:none"
           x="0"
           y="0">?</tspan></text>
      <path
         id="path11"
         d="m 2753.3,3753.06 c 0,-104.35 -84.59,-188.94 -188.94,-188.94 -104.35,0 -188.94,84.59 -188.94,188.94 0,104.35 84.59,188.94 188.94,188.94 104.35,0 188.94,-84.59 188.94,-188.94"
         style="fill:#79d0a2;fill-opacity:1;fill-rule:nonzero;stroke:none"
         transform="matrix(0.13333333,0,0,-0.13333333,0,666.66667)" />
      <text
         id="text11"
         xml:space="preserve"
         transform="matrix(1.3333333,0,0,1.3333333,332.164,184.72267)"><tspan
           id="tspan11"
           style="font-variant:normal;font-weight:normal;font-size:35.6206px;font-family:Alatsi-Regular;writing-mode:lr-tb;fill:#ffffff;fill-opacity:1;fill-rule:nonzero;stroke:none"
           x="0"
           y="0">?</tspan></text>
      <path
         id="path12"
         d="m 1205.14,2292.79 c 0,-52.55 -42.61,-95.14 -95.16,-95.14 -52.55,0 -95.16,42.59 -95.16,95.14 0,52.56 42.61,95.16 95.16,95.16 52.55,0 95.16,-42.6 95.16,-95.16"
         style="fill:#d2d4d1;fill-opacity:1;fill-rule:nonzero;stroke:none"
         transform="matrix(0.13333333,0,0,-0.13333333,0,666.66667)" />
      <path
         id="path13"
         d="m 3641.88,3701.85 h 814.56"
         style="fill:#d2d4d1;fill-opacity:1;fill-rule:nonzero;stroke:none"
         transform="matrix(0.13333333,0,0,-0.13333333,0,666.66667)" />
      <path
         id="path14"
         d="m 4480.98,3993.5 h -851.56 c -48.6,0 -88,-39.41 -88,-88.02 v -512.51 c 0,-48.61 39.4,-88.01 88,-88.01 h 173.33 l -34.37,-88.82 c -9.95,-25.71 19.82,-48.5 42.05,-32.17 l 164.6,120.99 h 505.95 c 48.6,0 88,39.4 88,88.01 v 512.51 c 0,48.61 -39.4,88.02 -88,88.02"
         style="fill:#91d8b1;fill-opacity:1;fill-rule:nonzero;stroke:none"
         transform="matrix(0.13333333,0,0,-0.13333333,0,666.66667)" />
      <path
         id="path15"
         d="m 3641.88,3849.82 h 814.56"
         style="fill:none;stroke:#ffffff;stroke-width:10;stroke-linecap:round;stroke-linejoin:round;stroke-miterlimit:10;stroke-dasharray:none;stroke-opacity:1"
         transform="matrix(0.13333333,0,0,-0.13333333,0,666.66667)" />
      <path
         id="path16"
         d="m 3641.88,3775.83 h 814.56"
         style="fill:none;stroke:#ffffff;stroke-width:10;stroke-linecap:round;stroke-linejoin:round;stroke-miterlimit:10;stroke-dasharray:none;stroke-opacity:1"
         transform="matrix(0.13333333,0,0,-0.13333333,0,666.66667)" />
      <path
         id="path17"
         d="m 3641.88,3701.85 h 814.56"
         style="fill:none;stroke:#ffffff;stroke-width:10;stroke-linecap:round;stroke-linejoin:round;stroke-miterlimit:10;stroke-dasharray:none;stroke-opacity:1"
         transform="matrix(0.13333333,0,0,-0.13333333,0,666.66667)" />
      <path
         id="path18"
         d="m 3641.88,3627.86 h 814.56"
         style="fill:none;stroke:#ffffff;stroke-width:10;stroke-linecap:round;stroke-linejoin:round;stroke-miterlimit:10;stroke-dasharray:none;stroke-opacity:1"
         transform="matrix(0.13333333,0,0,-0.13333333,0,666.66667)" />
      <path
         id="path19"
         d="m 3641.88,3553.87 h 814.56"
         style="fill:none;stroke:#ffffff;stroke-width:10;stroke-linecap:round;stroke-linejoin:round;stroke-miterlimit:10;stroke-dasharray:none;stroke-opacity:1"
         transform="matrix(0.13333333,0,0,-0.13333333,0,666.66667)" />
      <path
         id="path20"
         d="m 3641.88,3479.88 h 814.56"
         style="fill:none;stroke:#ffffff;stroke-width:10;stroke-linecap:round;stroke-linejoin:round;stroke-miterlimit:10;stroke-dasharray:none;stroke-opacity:1"
         transform="matrix(0.13333333,0,0,-0.13333333,0,666.66667)" />
      <path
         id="path21"
         d="m 1818.41,2364.28 c 0,0 -8.66,72.79 -19.93,107.45 -11.26,34.66 -58.93,100.52 -58.93,100.52 0,0 -19.06,-40.73 8.67,-74.53 0,0 -1.74,-53.72 0.87,-72.79 0,0 -90.09,76.95 -107.42,84.76 v 0 c -10.99,8.76 -24.4,19.46 -40.77,32.5 -59.79,47.66 -99.65,32.93 -94.45,29.47 3.57,-2.39 71.96,-57.69 114.28,-91.96 l -5.53,-7.93 c -12.86,10.26 -33.35,26.61 -63.69,50.8 -59.8,47.66 -99.66,32.93 -94.46,29.46 4.35,-2.9 104.45,-83.97 137.09,-110.42 l -9.64,-13.8 c -12.65,10.11 -33.71,26.92 -65.92,52.59 -59.8,47.66 -99.66,32.93 -94.46,29.46 4.46,-2.97 109.33,-87.93 139.31,-112.23 L 1553.22,2383 c -11.14,10.12 -42.05,37.57 -71.91,58.4 -37.26,25.99 -64.12,13.86 -64.12,13.86 0,0 0,0 16.46,-14.72 16.47,-14.74 102.26,-82.33 102.26,-82.33 0,0 130.98,-116.99 163.85,-128.25 l 32.05,-30.59 117.93,127.66 -31.33,37.25"
         style="fill:#f57d60;fill-opacity:1;fill-rule:nonzero;stroke:none"
         transform="matrix(0.13333333,0,0,-0.13333333,0,666.66667)" />
      <path
         id="path22"
         d="m 2761.31,1556.22 c -70.32,-101.4 -168.68,-164.02 -299.45,-137.41 -350.19,71.18 -763.68,750.95 -763.68,750.95 l 20.81,22.52 154.34,166.97 537.12,-488.09 167.73,242.8 163.83,237.11 80.97,117.18 c 0,0 47.42,-74.98 77.26,-313.32 18.63,-149.39 -20.71,-428.6 -138.93,-598.71"
         style="fill:#dc9c6a;fill-opacity:1;fill-rule:nonzero;stroke:none"
         transform="matrix(0.13333333,0,0,-0.13333333,0,666.66667)" />
      <path
         id="path23"
         d="m 2761.31,1556.22 c -70.32,-101.4 -168.68,-164.02 -299.45,-137.41 -350.19,71.18 -763.68,750.95 -763.68,750.95 l 20.81,22.52 12.84,7.12 c 0,0 492.74,-677.87 700.38,-577.04 128.39,62.35 149.01,310.85 145.97,491.6 l 163.83,237.11 19.3,-794.85"
         style="fill:#c8885a;fill-opacity:1;fill-rule:nonzero;stroke:none"
         transform="matrix(0.13333333,0,0,-0.13333333,0,666.66667)" />
      <path
         id="path24"
         d="m 4076.65,1622.36 -31.91,-561.86 h -123.73 l 48.63,561.86 h 107.01"
         style="fill:#489674;fill-opacity:1;fill-rule:nonzero;stroke:none"
         transform="matrix(0.13333333,0,0,-0.13333333,0,666.66667)" />
      <path
         id="path25"
         d="m 3319.3,1622.36 -31.92,-561.86 h -123.73 l 48.64,561.86 h 107.01"
         style="fill:#489674;fill-opacity:1;fill-rule:nonzero;stroke:none"
         transform="matrix(0.13333333,0,0,-0.13333333,0,666.66667)" />
      <path
         id="path26"
         d="M 4089.32,1525.1 H 3109 c -97.44,0 -176.42,78.99 -176.42,176.42 v 548.36 c 0,97.44 78.98,176.43 176.42,176.43 h 980.32 c 97.43,0 176.42,-78.99 176.42,-176.43 v -548.36 c 0,-97.43 -78.99,-176.42 -176.42,-176.42"
         style="fill:#489674;fill-opacity:1;fill-rule:nonzero;stroke:none"
         transform="matrix(0.13333333,0,0,-0.13333333,0,666.66667)" />
      <path
         id="path27"
         d="m 4006.63,1525.1 h -980.31 c -97.44,0 -176.44,78.99 -176.44,176.42 v 548.36 c 0,97.44 79,176.43 176.44,176.43 h 980.31 c 97.43,0 176.43,-78.99 176.43,-176.43 v -548.36 c 0,-97.43 -79,-176.42 -176.43,-176.42"
         style="fill:#5eb98e;fill-opacity:1;fill-rule:nonzero;stroke:none"
         transform="matrix(0.13333333,0,0,-0.13333333,0,666.66667)" />
      <path
         id="path28"
         d="m 3267.72,2679.3 c 0,0 193.34,31.05 453.45,-238.04 l 60,-1380.76 H 2694.09 c 0,0 -118.7,931.51 19.66,1262.78 138.37,331.28 386.88,370.84 553.97,356.02"
         style="fill:#fbc17e;fill-opacity:1;fill-rule:nonzero;stroke:none"
         transform="matrix(0.13333333,0,0,-0.13333333,0,666.66667)" />
      <path
         id="path29"
         d="m 2888.46,3428.15 47.73,65.35 406.92,-136.23 -3.54,-152.85 h 26.88 c 54.57,0 98.81,-44.24 98.81,-98.81 v 0 c 0,-54.58 -44.24,-98.82 -98.81,-98.82 H 3335 l -4.79,-207.45 v -182.3 l -294.6,-40.51 -7.22,121.93 -3.82,64.05 -42.75,20.41 c -122.36,58.39 -200.3,181.91 -200.3,317.5 0,117.86 37.46,232.61 106.94,327.73"
         style="fill:#f57d60;fill-opacity:1;fill-rule:nonzero;stroke:none"
         transform="matrix(0.13333333,0,0,-0.13333333,0,666.66667)" />
      <path
         id="path30"
         d="m 3024.57,2762.51 3.82,-64.05 c 10.83,1.29 22.17,2.96 33.94,5.11 181.96,33.17 253.19,197.64 245.8,282.36 0,0 -61.35,-203.78 -283.56,-223.42"
         style="fill:#f1694c;fill-opacity:1;fill-rule:nonzero;stroke:none"
         transform="matrix(0.13333333,0,0,-0.13333333,0,666.66667)" />
      <path
         id="path31"
         d="m 3369.48,3133.92 c -7.61,-5.77 -14.64,-13.41 -17.16,-22.94 0,0 15.2,-5.07 16.58,-22.1 1.38,-17.03 -16.58,-24.4 -16.58,-24.4 0,0 13.81,-23.01 36.83,-10.58 23.02,12.42 19.21,55.81 -3.68,64.9 0,0 36.37,4.14 49.72,-9.21 0,0 3.05,13.39 -12.15,25.24 -15.67,12.21 -37.73,11.07 -53.56,-0.91"
         style="fill:#f1694c;fill-opacity:1;fill-rule:nonzero;stroke:none"
         transform="matrix(0.13333333,0,0,-0.13333333,0,666.66667)" />
      <path
         id="path32"
         d="m 2888.46,3428.15 c 0,0 55.09,-94.83 126.3,-125.52 71.19,-30.69 147.3,13.98 218.49,-26.77 71.2,-40.75 25.78,-117.12 41.74,-153.81 15.96,-36.7 33.65,-41.61 33.65,-41.61 0,0 9.58,104.34 30.93,123.98 0,0 63.94,0.55 83.83,-18.09 0,0 35.72,72.1 41.86,128.57 6.14,56.47 -56.47,74.88 -56.47,74.88 0,0 -14.73,135.03 -180.45,185.36 -165.71,50.33 -292.15,-29.46 -358.44,0 -66.29,29.46 -126.43,-14.74 -130.11,-81.64 -3.69,-66.89 41.73,-91.44 41.73,-91.44 0,0 -30.69,-25.88 -18.41,-65.72 12.27,-39.85 50.8,-49.05 50.8,-49.05 0,0 45.35,101.03 74.55,140.86"
         style="fill:#361f16;fill-opacity:1;fill-rule:nonzero;stroke:none"
         transform="matrix(0.13333333,0,0,-0.13333333,0,666.66667)" />
      <path
         id="path33"
         d="m 2921.46,2942.82 168.74,8.28 c 0,0 -39.08,-60.77 -94.66,-60.18 -51.21,0.54 -74.08,51.9 -74.08,51.9"
         style="fill:#ffffff;fill-opacity:1;fill-rule:nonzero;stroke:none"
         transform="matrix(0.13333333,0,0,-0.13333333,0,666.66667)" />
      <path
         id="path34"
         d="m 3115.4,3217.63 c -2.12,0 -4.26,0.71 -6.03,2.16 -35.61,29.35 -70.63,4.42 -70.99,4.16 -4.24,-3.11 -10.19,-2.17 -13.27,2.07 -3.1,4.23 -2.18,10.18 2.06,13.28 16.21,11.83 56.78,26.07 94.29,-4.83 4.05,-3.34 4.62,-9.33 1.28,-13.38 -1.87,-2.28 -4.6,-3.46 -7.34,-3.46"
         style="fill:#361f16;fill-opacity:1;fill-rule:nonzero;stroke:none"
         transform="matrix(0.13333333,0,0,-0.13333333,0,666.66667)" />
      <path
         id="path35"
         d="m 2905.57,3217.63 c -2.12,0 -4.26,0.71 -6.03,2.16 -35.61,29.35 -70.64,4.42 -70.99,4.16 -4.24,-3.11 -10.19,-2.17 -13.28,2.07 -3.09,4.23 -2.17,10.18 2.07,13.28 16.21,11.83 56.77,26.07 94.28,-4.83 4.05,-3.34 4.63,-9.33 1.29,-13.38 -1.87,-2.28 -4.59,-3.46 -7.34,-3.46"
         style="fill:#361f16;fill-opacity:1;fill-rule:nonzero;stroke:none"
         transform="matrix(0.13333333,0,0,-0.13333333,0,666.66667)" />
      <path
         id="path36"
         d="m 3384.24,2664.89 -53.4,69.45 -212.09,-74.74 -34.34,-59.59 -23.23,53.53 -32.22,35.18 -33.42,-64.46 c 0,0 1,-64.64 82.81,-81.81 81.81,-17.17 260.58,49.49 305.89,122.44"
         style="fill:#94796b;fill-opacity:1;fill-rule:nonzero;stroke:none"
         transform="matrix(0.13333333,0,0,-0.13333333,0,666.66667)" />
      <path
         id="path37"
         d="m 3423.4,3186.33 c 0,0 -32.97,12.6 -64.28,-16.19 -31.31,-28.78 -20.7,-57.06 -20.7,-57.06 0,0 14.46,34.1 45.45,30.38 30.98,-3.72 53.52,-87.44 12.12,-103.1 -41.41,-15.65 -94.26,8.2 -92.42,72.72 1.85,64.51 25.51,101 64.52,106.55 39.01,5.56 54.44,-27.2 55.31,-33.3"
         style="fill:#5aad87;fill-opacity:1;fill-rule:nonzero;stroke:none"
         transform="matrix(0.13333333,0,0,-0.13333333,0,666.66667)" />
      <path
         id="path38"
         d="m 3130.61,2862.05 c -4,0 -7.57,2.83 -8.35,6.9 -0.89,4.62 2.12,9.08 6.75,9.97 160.41,30.85 214.75,181.91 215.28,183.42 1.54,4.44 6.36,6.79 10.83,5.25 4.44,-1.54 6.79,-6.38 5.25,-10.82 -0.57,-1.62 -57.88,-161.82 -228.15,-194.57 -0.54,-0.1 -1.09,-0.15 -1.61,-0.15"
         style="fill:#5aad87;fill-opacity:1;fill-rule:nonzero;stroke:none"
         transform="matrix(0.13333333,0,0,-0.13333333,0,666.66667)" />
      <path
         id="path39"
         d="m 3094.81,2867.64 c 0,-19.82 16.08,-35.89 35.9,-35.89 19.83,0 35.9,16.07 35.9,35.89 0,19.83 -16.07,35.9 -35.9,35.9 -19.82,0 -35.9,-16.07 -35.9,-35.9"
         style="fill:#489674;fill-opacity:1;fill-rule:nonzero;stroke:none"
         transform="matrix(0.13333333,0,0,-0.13333333,0,666.66667)" />
      <path
         id="path40"
         d="m 3379.82,3127.99 c 0,0 -4.54,-39.66 4.17,-60.87 8.72,-21.2 22.35,-10.22 25,15.54 2.65,25.75 -23.1,61.88 -29.17,45.33"
         style="fill:#489674;fill-opacity:1;fill-rule:nonzero;stroke:none"
         transform="matrix(0.13333333,0,0,-0.13333333,0,666.66667)" />
      <path
         id="path41"
         d="m 3038.53,3141.3 c 0,0 0.06,-37.01 48.51,-43.15 48.45,-6.14 57.27,43.15 57.27,43.15 0,0 -27.51,25.79 -63.09,26.56 -35.57,0.75 -42.69,-26.56 -42.69,-26.56"
         style="fill:#ffffff;fill-opacity:1;fill-rule:nonzero;stroke:none"
         transform="matrix(0.13333333,0,0,-0.13333333,0,666.66667)" />
      <path
         id="path42"
         d="m 2817.19,3141.3 c 0,0 0.07,-37.01 47.47,-43.15 47.4,-6.14 53.75,43.11 53.75,43.11 0,0 -24.64,25.83 -59.45,26.6 -34.79,0.75 -41.77,-26.56 -41.77,-26.56"
         style="fill:#ffffff;fill-opacity:1;fill-rule:nonzero;stroke:none"
         transform="matrix(0.13333333,0,0,-0.13333333,0,666.66667)" />
      <path
         id="path43"
         d="m 2918.41,3141.26 c 0,0 -25.39,27.89 -52.57,32.9 -27.17,5.01 -45.82,-8.23 -48.65,-32.9 0,0 5.39,20.39 32.57,22.89 27.16,2.5 68.65,-22.89 68.65,-22.89"
         style="fill:#361f16;fill-opacity:1;fill-rule:nonzero;stroke:none"
         transform="matrix(0.13333333,0,0,-0.13333333,0,666.66667)" />
      <path
         id="path44"
         d="m 3144.31,3141.3 c 0,0 -26.54,29.15 -54.93,34.38 -28.4,5.23 -47.9,-8.6 -50.85,-34.38 0,0 5.63,21.3 34.03,23.92 28.4,2.61 71.75,-23.92 71.75,-23.92"
         style="fill:#361f16;fill-opacity:1;fill-rule:nonzero;stroke:none"
         transform="matrix(0.13333333,0,0,-0.13333333,0,666.66667)" />
      <path
         id="path45"
         d="m 2964.95,3140.24 -22.34,-134.87 c 0,0 -17.79,-1.37 -42.41,8.66 0,0 58.36,111.06 64.75,126.21"
         style="fill:#f1694c;fill-opacity:1;fill-rule:nonzero;stroke:none"
         transform="matrix(0.13333333,0,0,-0.13333333,0,666.66667)" />
      <path
         id="path46"
         d="m 2300.12,1060.5 c 0,0 -3.64,107.69 117.65,141.43 121.28,33.75 269.03,-64.92 292.74,-141.43 h -410.39"
         style="fill:#489674;fill-opacity:1;fill-rule:nonzero;stroke:none"
         transform="matrix(0.13333333,0,0,-0.13333333,0,666.66667)" />
      <path
         id="path47"
         d="m 3115.41,3131.83 c 0,-21.24 -13.6,-38.45 -30.38,-38.45 -16.79,0 -30.39,17.21 -30.39,38.45 0,21.23 13.6,38.44 30.39,38.44 16.78,0 30.38,-17.21 30.38,-38.44"
         style="fill:#361f16;fill-opacity:1;fill-rule:nonzero;stroke:none"
         transform="matrix(0.13333333,0,0,-0.13333333,0,666.66667)" />
      <path
         id="path48"
         d="m 2902.32,3130.62 c 0,-20.57 -13.27,-37.24 -29.63,-37.24 -16.37,0 -29.64,16.67 -29.64,37.24 0,20.58 13.27,37.25 29.64,37.25 16.36,0 29.63,-16.67 29.63,-37.25"
         style="fill:#361f16;fill-opacity:1;fill-rule:nonzero;stroke:none"
         transform="matrix(0.13333333,0,0,-0.13333333,0,666.66667)" />
      <path
         id="path49"
         d="m 3219.39,3035.66 c 0,-16.76 -19.85,-30.35 -44.34,-30.35 -24.48,0 -44.34,13.59 -44.34,30.35 0,16.77 19.86,30.36 44.34,30.36 24.49,0 44.34,-13.59 44.34,-30.36"
         style="fill:#f1694c;fill-opacity:1;fill-rule:nonzero;stroke:none"
         transform="matrix(0.13333333,0,0,-0.13333333,0,666.66667)" />
      <path
         id="path50"
         d="m 2857.33,3050.21 c 0,-16.76 -19.85,-30.35 -44.33,-30.35 -24.49,0 -44.34,13.59 -44.34,30.35 0,16.77 19.85,30.36 44.34,30.36 24.48,0 44.33,-13.59 44.33,-30.36"
         style="fill:#f1694c;fill-opacity:1;fill-rule:nonzero;stroke:none"
         transform="matrix(0.13333333,0,0,-0.13333333,0,666.66667)" />
      <path
         id="path51"
         d="m 4019.91,1403.32 c -30.69,-92.37 -86.85,-162.23 -153.38,-211.64 -45.33,-33.55 -95.42,-57.59 -145.4,-72.7 -208.69,-63.29 -981.59,-58.44 -981.59,-58.44 l 29.08,233.49 865.46,194.53 c 0,0 -111.94,355.14 -107,642.04 4.46,267.04 84.1,377.09 173.81,325.1 6.75,-3.99 13.49,-8.74 20.24,-14.44 0,0 136.65,-203.65 277.69,-621.89 57.68,-171.06 56.63,-308.67 21.09,-416.05"
         style="fill:#f1ae72;fill-opacity:1;fill-rule:nonzero;stroke:none"
         transform="matrix(0.13333333,0,0,-0.13333333,0,666.66667)" />
      <path
         id="path52"
         d="m 2680.71,1263.02 -183.61,33.45 c 0,0 -33.74,5.79 -67.48,-8.8 -33.75,-14.59 -72.05,-85.74 -72.05,-85.74 0,0 31.01,-0.46 51.99,18.47 20.97,18.93 23.71,35.34 23.71,35.34 l 67.37,-5.25 1.21,-15.63 c -22.5,-4.92 -86.57,-19.53 -117.83,-32.93 -38.3,-16.41 -58.37,-66.57 -58.37,-66.57 0,0 50.16,7.3 75.7,38.3 l 104.29,11.84 0.75,-9.74 c -21.49,-1.46 -59.89,-6.28 -95.92,-22.16 -53.81,-23.71 -70.23,-55.63 -70.23,-55.63 0,0 53.81,0 91.66,29.19 l 25.48,2.11 c -25.18,-16.15 -46.91,-55.01 -46.91,-55.01 0,0 10.94,-2.74 35.57,8.21 24.62,10.94 31,23.42 31,23.42 l 71.76,-5.37 v 0 c 37.25,-5.32 93.62,-10.55 125.84,0.19 l 68.62,-10.55 21.53,172.86 h -84.08"
         style="fill:#f57d60;fill-opacity:1;fill-rule:nonzero;stroke:none"
         transform="matrix(0.13333333,0,0,-0.13333333,0,666.66667)" />
      <path
         id="path53"
         d="M 4209.24,947.5 H 756.695 c -31.203,0 -56.5,25.289 -56.5,56.49 v 0 c 0,31.21 25.297,56.51 56.5,56.51 H 4209.24 c 31.21,0 56.5,-25.3 56.5,-56.51 v 0 c 0,-31.201 -25.29,-56.49 -56.5,-56.49"
         style="fill:#489674;fill-opacity:1;fill-rule:nonzero;stroke:none"
         transform="matrix(0.13333333,0,0,-0.13333333,0,666.66667)" />
      <path
         id="path54"
         d="M 2885.76,947.5 H 734.098 c -18.723,0 -33.903,25.289 -33.903,56.49 v 0 c 0,31.21 15.18,56.51 33.903,56.51 H 1809.93 2885.76 c 18.72,0 33.91,-25.3 33.91,-56.51 v 0 c 0,-31.201 -15.19,-56.49 -33.91,-56.49"
         style="fill:#5eb98e;fill-opacity:1;fill-rule:nonzero;stroke:none"
         transform="matrix(0.13333333,0,0,-0.13333333,0,666.66667)" />
      <path
         id="path55"
         d="M 2235.11,1278.24 H 1046.1 c -40.1,0 -74.811,27.89 -83.432,67.06 l -153.688,698 c -7.539,34.24 18.524,66.66 53.579,66.66 H 2064.97 c 35.54,0 66.29,-24.72 73.94,-59.42 l 154.17,-700.18 c 8.15,-37.04 -20.05,-72.12 -57.97,-72.12"
         style="fill:#5eb98e;fill-opacity:1;fill-rule:nonzero;stroke:none"
         transform="matrix(0.13333333,0,0,-0.13333333,0,666.66667)" />
      <path
         id="path56"
         d="m 1241.08,1396.46 c -9.93,-50 -68.3,-80.56 -130.38,-68.25 -62.07,12.33 -104.35,62.86 -94.42,112.88 9.93,50.02 68.3,80.58 130.38,68.26 62.08,-12.33 104.35,-62.87 94.42,-112.89"
         style="fill:#79d0a2;fill-opacity:1;fill-rule:nonzero;stroke:none"
         transform="matrix(0.13333333,0,0,-0.13333333,0,666.66667)" />
      <path
         id="path57"
         d="m 2293.08,1350.36 -154.17,700.18 c -7.65,34.7 -38.4,59.42 -73.94,59.42 h -69.31 c 35.54,0 66.29,-24.72 73.93,-59.42 l 154.17,-700.18 c 8.16,-37.04 -20.04,-72.12 -57.96,-72.12 h 69.31 c 37.92,0 66.12,35.08 57.97,72.12"
         style="fill:#489674;fill-opacity:1;fill-rule:nonzero;stroke:none"
         transform="matrix(0.13333333,0,0,-0.13333333,0,666.66667)" />
      <path
         id="path58"
         d="m 2087.31,1088.54 c 0,-15.49 -12.51,-28 -28,-28 h -987.03 c -15.83,0 -30.21,6.46 -40.6,16.84 -10.47,10.39 -16.86,24.69 -16.86,40.61 0,11.32 3.41,22.38 9.71,31.83 l 244.29,366.01 c 6.98,10.29 18.55,16.51 30.98,16.51 h 427.12 c 15.32,0 24.94,-16.6 17.2,-29.88 l -206.24,-356.3 c -7.67,-13.19 1.87,-29.62 17.02,-29.62 h 504.41 c 7.74,0 14.72,-3.15 19.83,-8.26 5.02,-5.02 8.17,-12 8.17,-19.74"
         style="fill:#489674;fill-opacity:1;fill-rule:nonzero;stroke:none"
         transform="matrix(0.13333333,0,0,-0.13333333,0,666.66667)" />
      <path
         id="path59"
         d="m 1794.27,1698.96 h -605.55 c -7.05,0 -12.77,5.72 -12.77,12.77 v 0 c 0,7.05 5.72,12.77 12.77,12.77 h 605.55 c 7.05,0 12.77,-5.72 12.77,-12.77 v 0 c 0,-7.05 -5.72,-12.77 -12.77,-12.77"
         style="fill:#489674;fill-opacity:1;fill-rule:nonzero;stroke:none"
         transform="matrix(0.13333333,0,0,-0.13333333,0,666.66667)" />
      <path
         id="path60"
         d="m 1823.46,1622.36 h -605.55 c -7.06,0 -12.77,5.72 -12.77,12.77 v 0 c 0,7.05 5.71,12.76 12.77,12.76 h 605.55 c 7.05,0 12.77,-5.71 12.77,-12.76 v 0 c 0,-7.05 -5.72,-12.77 -12.77,-12.77"
         style="fill:#489674;fill-opacity:1;fill-rule:nonzero;stroke:none"
         transform="matrix(0.13333333,0,0,-0.13333333,0,666.66667)" />
      <path
         id="path61"
         d="m 821.52,2068.62 h 1282.32 c 10.43,0 20.45,-1.93 29.7,-5.37 -11.54,27.87 -38.91,46.71 -69.94,46.71 H 861.195 c -26.687,0 -48.121,-18.81 -53.519,-42.89 4.418,1 9.047,1.55 13.844,1.55"
         style="fill:#79d0a2;fill-opacity:1;fill-rule:nonzero;stroke:none"
         transform="matrix(0.13333333,0,0,-0.13333333,0,666.66667)" />
      <path
         id="path62"
         d="m 2138.88,1396.46 c -9.93,-50 -68.3,-80.56 -130.38,-68.25 -62.08,12.33 -104.35,62.86 -94.42,112.88 9.92,50.02 68.3,80.58 130.37,68.26 62.08,-12.33 104.35,-62.87 94.43,-112.89"
         style="fill:#79d0a2;fill-opacity:1;fill-rule:nonzero;stroke:none"
         transform="matrix(0.13333333,0,0,-0.13333333,0,666.66667)" />
      <path
         id="path63"
         d="m 2087.24,1086.49 c -1.06,-14.9 -14.49,-25.95 -29.43,-25.95 h -561.73 c -22.68,0 -41.06,18.38 -41.06,41.06 v 0 c 0,7.76 2.2,15.36 6.34,21.92 l 258.07,408.82 h 7.49 c 15.32,0 24.94,-16.6 17.2,-29.88 l -206.24,-356.3 c -7.67,-13.19 1.87,-29.62 17.02,-29.62 h 504.41 c 7.74,0 14.72,-3.15 19.83,-8.26 5.46,-5.46 8.7,-13.23 8.1,-21.79"
         style="fill:#397b60;fill-opacity:1;fill-rule:nonzero;stroke:none"
         transform="matrix(0.13333333,0,0,-0.13333333,0,666.66667)" />
      <path
         id="path64"
         d="m 3721.13,1118.98 c -208.69,-63.29 -981.59,-58.44 -981.59,-58.44 l 998.61,265.72 c 104.43,27.78 170.92,129.96 153.95,236.67 -43.89,275.88 -128.84,770.87 -191.21,892.77 6.75,-3.99 13.49,-8.74 20.24,-14.44 0,0 136.65,-203.65 277.69,-621.89 141.02,-418.33 -68.91,-637.19 -277.69,-700.39"
         style="fill:#dc9c6a;fill-opacity:1;fill-rule:nonzero;stroke:none"
         transform="matrix(0.13333333,0,0,-0.13333333,0,666.66667)" />
      <path
         id="path65"
         d="m 3662.24,1478.77 c 0,0 142.79,2.01 258.75,-103.87"
         style="fill:none;stroke:#94796b;stroke-width:10;stroke-linecap:round;stroke-linejoin:round;stroke-miterlimit:10;stroke-dasharray:none;stroke-opacity:1"
         transform="matrix(0.13333333,0,0,-0.13333333,0,666.66667)" />
      <path
         id="path66"
         d="m 3363.47,2639.97 c 0,0 187.89,-63.9 280.41,-173.44"
         style="fill:none;stroke:#f1ae72;stroke-width:10;stroke-linecap:round;stroke-linejoin:round;stroke-miterlimit:10;stroke-dasharray:none;stroke-opacity:1"
         transform="matrix(0.13333333,0,0,-0.13333333,0,666.66667)" />
      <path
         id="path67"
         d="m 2428.18,1839.22 c 0,0 103.75,-134.41 117.04,-289.17"
         style="fill:none;stroke:#94796b;stroke-width:10;stroke-linecap:round;stroke-linejoin:round;stroke-miterlimit:10;stroke-dasharray:none;stroke-opacity:1"
         transform="matrix(0.13333333,0,0,-0.13333333,0,666.66667)" />
      <path
         id="path68"
         d="m 2964.88,2623.27 c 0,0 -39.45,-110.68 125.32,-124.26 164.76,-13.57 345.36,148.07 345.36,148.07"
         style="fill:none;stroke:#f1ae72;stroke-width:10;stroke-linecap:round;stroke-linejoin:round;stroke-miterlimit:10;stroke-dasharray:none;stroke-opacity:1"
         transform="matrix(0.13333333,0,0,-0.13333333,0,666.66667)" />
      <path
         id="path69"
         d="m 2739.54,1263.02 -38.58,-166.36 42.3,-6.5 21.53,172.86 h -25.25"
         style="fill:#f1694c;fill-opacity:1;fill-rule:nonzero;stroke:none"
         transform="matrix(0.13333333,0,0,-0.13333333,0,666.66667)" />
      <path
         id="path70"
         d="m 3078.35,2542.45 c 0,0 -48.85,-139.21 -82.81,-499.21"
         style="fill:none;stroke:#f1ae72;stroke-width:10;stroke-linecap:round;stroke-linejoin:round;stroke-miterlimit:10;stroke-dasharray:none;stroke-opacity:1"
         transform="matrix(0.13333333,0,0,-0.13333333,0,666.66667)" />
      <path
         id="path71"
         d="m 3393.88,3388.25 c 0,0 -76.96,18.21 -146.59,-8.58"
         style="fill:none;stroke:#4b2e23;stroke-width:10;stroke-linecap:round;stroke-linejoin:round;stroke-miterlimit:10;stroke-dasharray:none;stroke-opacity:1"
         transform="matrix(0.13333333,0,0,-0.13333333,0,666.66667)" />
      <path
         id="path72"
         d="m 2888.46,3428.15 c 0,0 -7.77,-112.69 134.81,-128.8"
         style="fill:none;stroke:#4b2e23;stroke-width:10;stroke-linecap:round;stroke-linejoin:round;stroke-miterlimit:10;stroke-dasharray:none;stroke-opacity:1"
         transform="matrix(0.13333333,0,0,-0.13333333,0,666.66667)" />
      <path
         id="path73"
         d="m 3406.56,3462.53 c 0,0 16.6,-44.79 2.23,-72.75"
         style="fill:none;stroke:#4b2e23;stroke-width:10;stroke-linecap:round;stroke-linejoin:round;stroke-miterlimit:10;stroke-dasharray:none;stroke-opacity:1"
         transform="matrix(0.13333333,0,0,-0.13333333,0,666.66667)" />
      <path
         id="path74"
         d="m 2760.85,3508.25 c 0,0 -6.43,-69.22 64.29,-96.43"
         style="fill:none;stroke:#4b2e23;stroke-width:10;stroke-linecap:round;stroke-linejoin:round;stroke-miterlimit:10;stroke-dasharray:none;stroke-opacity:1"
         transform="matrix(0.13333333,0,0,-0.13333333,0,666.66667)" />
      <path
         id="path75"
         d="m 2786.56,3379.67 c 0,0 -13.12,-51.8 35.76,-74.11"
         style="fill:none;stroke:#4b2e23;stroke-width:10;stroke-linecap:round;stroke-linejoin:round;stroke-miterlimit:10;stroke-dasharray:none;stroke-opacity:1"
         transform="matrix(0.13333333,0,0,-0.13333333,0,666.66667)" />
      <path
         id="path76"
         d="m 3014.79,3556.46 c 0,0 91.19,39.99 220.71,-18.21 116.82,-52.5 127.97,-117.86 127.97,-117.86"
         style="fill:none;stroke:#4b2e23;stroke-width:10;stroke-linecap:round;stroke-linejoin:round;stroke-miterlimit:10;stroke-dasharray:none;stroke-opacity:1"
         transform="matrix(0.13333333,0,0,-0.13333333,0,666.66667)" />
      <path
         id="path77"
         d="m 3406.56,3360.39 c 0,0 25.73,-12.14 25.73,-48.57 0,-36.43 -17.64,-73.57 -17.64,-73.57"
         style="fill:none;stroke:#4b2e23;stroke-width:10;stroke-linecap:round;stroke-linejoin:round;stroke-miterlimit:10;stroke-dasharray:none;stroke-opacity:1"
         transform="matrix(0.13333333,0,0,-0.13333333,0,666.66667)" />
      <path
         id="path78"
         d="m 2978.35,3373.25 c 0,0 18.19,-48.22 124.28,-53.58 106.08,-5.35 140.37,-5.35 169.29,-39.64 28.93,-34.28 19.29,-71.78 19.29,-71.78"
         style="fill:none;stroke:#4b2e23;stroke-width:10;stroke-linecap:round;stroke-linejoin:round;stroke-miterlimit:10;stroke-dasharray:none;stroke-opacity:1"
         transform="matrix(0.13333333,0,0,-0.13333333,0,666.66667)" />
      <path
         id="path79"
         d="m 2938.62,4491.72 h -965.44 c -55.9,0 -101.23,-45.33 -101.23,-101.24 v -165.29 c 0,-55.91 45.33,-101.23 101.23,-101.23 h 127.87 l -29.75,-102.75 c -5.54,-19.13 15.54,-34.94 32.36,-24.27 l 200.19,127.02 h 634.77 c 55.91,0 101.24,45.32 101.24,101.23 v 165.29 c 0,55.91 -45.33,101.24 -101.24,101.24"
         style="fill:#d2d4d1;fill-opacity:1;fill-rule:nonzero;stroke:none"
         transform="matrix(0.13333333,0,0,-0.13333333,0,666.66667)" />
      <path
         id="path80"
         d="M 2003.25,4392.77 H 2914.2"
         style="fill:none;stroke:#ffffff;stroke-width:10;stroke-linecap:round;stroke-linejoin:round;stroke-miterlimit:10;stroke-dasharray:none;stroke-opacity:1"
         transform="matrix(0.13333333,0,0,-0.13333333,0,666.66667)" />
      <path
         id="path81"
         d="M 2003.25,4315.48 H 2914.2"
         style="fill:none;stroke:#ffffff;stroke-width:10;stroke-linecap:round;stroke-linejoin:round;stroke-miterlimit:10;stroke-dasharray:none;stroke-opacity:1"
         transform="matrix(0.13333333,0,0,-0.13333333,0,666.66667)" />
      <path
         id="path82"
         d="M 2003.25,4238.19 H 2914.2"
         style="fill:none;stroke:#ffffff;stroke-width:10;stroke-linecap:round;stroke-linejoin:round;stroke-miterlimit:10;stroke-dasharray:none;stroke-opacity:1"
         transform="matrix(0.13333333,0,0,-0.13333333,0,666.66667)" />
      <path
         id="path83"
         d="m 2187.73,3489.38 c 0,-453.96 -368.01,-821.98 -821.98,-821.98 -453.965,0 -821.977,368.02 -821.977,821.98 0,453.97 368.012,821.98 821.977,821.98 453.97,0 821.98,-368.01 821.98,-821.98 z"
         style="fill:none;stroke:#aeb8b2;stroke-width:10;stroke-linecap:butt;stroke-linejoin:miter;stroke-miterlimit:10;stroke-dasharray:none;stroke-opacity:1"
         transform="matrix(0.13333333,0,0,-0.13333333,0,666.66667)" />
      <path
         id="path84"
         d="m 2135.56,3489.45 c 0,-287.28 -157.37,-537.79 -390.58,-670.07 -26.13,-14.83 -53.22,-28.23 -81.06,-39.92 -91.71,-38.58 -192.44,-59.87 -298.12,-59.87 -7.03,0 -13.97,0.1 -20.91,0.29 -4.27,0.1 -8.55,0.29 -12.82,0.57 -3.05,0 -5.99,0.09 -9.03,0.38 -4.56,0.19 -9.12,0.47 -13.59,0.85 -1.9,0.1 -3.81,0.19 -5.7,0.48 -5.42,0.29 -10.74,0.85 -16.06,1.33 -6.18,0.67 -12.27,1.33 -18.34,2.09 l 190.34,275.31 -505.663,548.24 -329.949,-266.57 c -3.426,12.36 -6.558,24.71 -9.41,37.35 -1.047,4.75 -2.09,9.6 -3.043,14.35 -1.328,6.27 -2.562,12.64 -3.613,18.91 -0.754,4.18 -1.52,8.37 -2.09,12.55 -1.043,5.98 -1.899,12.07 -2.754,18.15 -0.473,3.42 -0.949,6.75 -1.328,10.17 -0.668,5.22 -1.332,10.54 -1.805,15.87 l -0.289,3.13 c -0.57,5.71 -1.137,11.41 -1.519,17.2 -0.473,6.37 -0.954,12.74 -1.235,19.2 v 0.38 c -0.383,6.56 -0.664,13.11 -0.762,19.76 -0.191,6.56 -0.285,13.22 -0.285,19.87 0,127.82 31.168,248.32 86.289,354.37 114.512,220.48 332.616,378.52 589.866,409.79 30.69,3.7 61.96,5.6 93.7,5.6 129.24,0 251.17,-31.93 358.08,-88.29 l -335.27,-270.74 223.8,-678.63 434.01,627.6 c 56.92,-107.29 89.14,-229.79 89.14,-359.7"
         style="fill:#79d0a2;fill-opacity:1;fill-rule:nonzero;stroke:none"
         transform="matrix(0.13333333,0,0,-0.13333333,0,666.66667)" />
      <path
         id="path85"
         d="M 680.199,3844.5 951.992,3549.81 622.043,3283.24 c -3.426,12.36 -6.559,24.71 -9.41,37.35 -1.047,4.75 -2.09,9.6 -3.043,14.35 -1.328,6.27 -2.563,12.64 -3.613,18.91 -0.758,4.18 -1.52,8.37 -2.09,12.55 -1.043,5.98 -1.899,12.07 -2.754,18.15 -0.473,3.42 -0.953,6.74 -1.332,10.17 -0.664,5.22 -1.328,10.54 -1.805,15.87 l -0.285,3.13 c -0.57,5.7 -1.141,11.41 -1.52,17.2 -0.472,6.37 -0.953,12.74 -1.234,19.2 v 0.38 c -0.383,6.56 -0.664,13.11 -0.762,19.76 -0.191,6.56 -0.285,13.22 -0.285,19.87 0,127.81 31.168,248.32 86.289,354.37"
         style="fill:#5eb98e;fill-opacity:1;fill-rule:nonzero;stroke:none"
         transform="matrix(0.13333333,0,0,-0.13333333,0,666.66667)" />
      <path
         id="path86"
         d="m 1661.88,2780.14 c -91.7,-38.58 -192.44,-59.87 -298.12,-59.87 -7.03,0 -13.97,0.1 -20.9,0.29 -4.28,0.09 -8.55,0.28 -12.83,0.57 -3.04,0 -5.99,0.09 -9.03,0.38 -4.56,0.19 -9.12,0.47 -13.59,0.85 -1.9,0.1 -3.8,0.19 -5.7,0.48 -5.42,0.28 -10.74,0.86 -16.06,1.33 -6.18,0.66 -12.26,1.33 -18.34,2.09 l 190.35,275.31 204.22,-221.43"
         style="fill:#5eb98e;fill-opacity:1;fill-rule:nonzero;stroke:none"
         transform="matrix(0.13333333,0,0,-0.13333333,0,666.66667)" />
      <path
         id="path87"
         d="m 1721.85,4171.6 -335.28,-270.75 -116.51,353.43 c 30.7,3.71 61.97,5.61 93.7,5.61 129.25,0 251.18,-31.93 358.09,-88.29"
         style="fill:#5eb98e;fill-opacity:1;fill-rule:nonzero;stroke:none"
         transform="matrix(0.13333333,0,0,-0.13333333,0,666.66667)" />
      <path
         id="path88"
         d="m 2133.53,3490.13 c 0,-287.28 -157.38,-537.79 -390.59,-670.07 l -132.57,402.17 434.01,627.59 c 56.93,-107.29 89.15,-229.78 89.15,-359.69"
         style="fill:#5eb98e;fill-opacity:1;fill-rule:nonzero;stroke:none"
         transform="matrix(0.13333333,0,0,-0.13333333,0,666.66667)" />
      <path
         id="path89"
         d="m 1457.66,3001.57 -190.35,-275.31 c -4.85,0.57 -9.7,1.24 -14.54,2 -4,0.57 -7.98,1.13 -11.97,1.8 -4.47,0.67 -8.85,1.42 -13.31,2.28 -5.89,1.05 -11.79,2.09 -17.68,3.33 -5.03,1.04 -10.07,2.09 -15.01,3.23 -3.14,0.67 -6.27,1.42 -9.41,2.18 -4.18,0.96 -8.27,2 -12.45,3.05 -13.59,3.42 -26.99,7.32 -40.29,11.49 -4.85,1.52 -9.7,3.05 -14.45,4.66 -6.46,2.19 -12.83,4.37 -19.1,6.75 -5.89,2.09 -11.79,4.37 -17.58,6.65 -5.89,2.28 -11.69,4.65 -17.39,7.13 -5.7,2.37 -11.41,4.84 -17.01,7.41 0,0 -0.1,0 -0.19,0.1 -5.7,2.56 -11.31,5.22 -16.92,7.88 -17.1,8.17 -33.737,17.01 -50.076,26.42 -5.133,3.04 -10.266,6.09 -15.305,9.12 -10.645,6.38 -21.094,13.12 -31.266,20.06 -5.133,3.42 -10.164,6.94 -15.203,10.54 -5.039,3.52 -10.074,7.23 -15.015,10.94 -0.192,0.09 -0.379,0.28 -0.665,0.47 -4.66,3.52 -9.41,7.13 -13.968,10.74 -4.086,3.23 -8.082,6.36 -12.071,9.69 -5.894,4.75 -11.691,9.7 -17.394,14.64 -4.367,3.8 -8.649,7.6 -12.926,11.5 -4.269,3.89 -8.547,7.88 -12.824,11.87 -0.477,0.48 -0.953,0.86 -1.332,1.24 -4.184,4.08 -8.36,8.17 -12.547,12.36 -3.605,3.6 -7.223,7.31 -10.828,11.02 -4.942,5.13 -9.883,10.36 -14.641,15.68 -4.179,4.56 -8.265,9.21 -12.254,13.87 -3.234,3.62 -6.273,7.32 -9.316,11.03 -1.899,2.09 -3.609,4.18 -5.316,6.36 -3.043,3.71 -5.993,7.42 -8.938,11.12 -3.324,4.18 -6.559,8.37 -9.691,12.64 -4.278,5.61 -8.457,11.22 -12.454,17.01 -3.609,5.04 -7.125,10.07 -10.546,15.21 -2.469,3.61 -4.848,7.22 -7.219,10.92 -1.527,2.19 -2.949,4.47 -4.371,6.75 -6.465,10.08 -12.739,20.44 -18.727,30.89 -2.754,4.94 -5.508,9.88 -8.265,14.92 -6.27,11.5 -12.262,23.19 -17.868,35.07 -2.468,4.94 -4.75,9.97 -7.031,15.01 -2.379,5.32 -4.75,10.65 -7.031,15.97 -0.192,0.38 -0.289,0.85 -0.481,1.23 -2.371,5.61 -4.75,11.31 -7.031,17.01 0,0.19 -0.09,0.38 -0.187,0.67 -2.282,5.7 -4.469,11.5 -6.559,17.29 -2.09,5.52 -4.086,11.12 -5.984,16.83 -1.711,5.03 -3.418,10.16 -5.035,15.29 -1.145,3.81 -2.379,7.7 -3.524,11.5 -0.09,0.29 -0.183,0.48 -0.183,0.76 -1.333,4.47 -2.661,8.93 -3.895,13.4 l 329.949,266.57 505.668,-548.24"
         style="fill:#489674;fill-opacity:1;fill-rule:nonzero;stroke:none"
         transform="matrix(0.13333333,0,0,-0.13333333,0,666.66667)" />
      <path
         id="path90"
         d="m 2044.38,3849.82 -434.01,-627.59 -223.8,678.62 335.28,270.75 c 137.32,-72.22 250.03,-184.65 322.53,-321.78"
         style="fill:#489674;fill-opacity:1;fill-rule:nonzero;stroke:none"
         transform="matrix(0.13333333,0,0,-0.13333333,0,666.66667)" />
      <path
         id="path91"
         d="m 1610.37,3222.23 -152.71,-220.66 -505.668,548.24 434.578,351.04 223.8,-678.62"
         style="fill:#5eb98e;fill-opacity:1;fill-rule:nonzero;stroke:none"
         transform="matrix(0.13333333,0,0,-0.13333333,0,666.66667)" />
      <path
         id="path92"
         d="m 1506.27,3597.21 2.42,40.53 27.05,12.91 c 77.42,36.95 126.74,115.11 126.74,200.9 0,74.57 -23.71,147.19 -67.67,207.37 l -30.2,41.35 -257.47,-86.2 2.23,-96.71 h -17 c -34.53,0 -62.53,-28 -62.53,-62.53 v 0 c 0,-34.53 28,-62.53 62.53,-62.53 h 19.89 l 3.03,-131.26 v -46.08 c 0,0 -46.5,-44.8 -134.75,-82.82 0,0 98.4,-123.54 260.98,-131.68 162.6,-8.15 168.85,89.62 168.85,89.62 0,0 -67.42,40.35 -106.07,73.79 l 1.97,33.34"
         style="fill:#f57d60;fill-opacity:1;fill-rule:nonzero;stroke:none"
         transform="matrix(0.13333333,0,0,-0.13333333,0,666.66667)" />
      <path
         id="path93"
         d="m 1508.69,3637.74 -2.42,-40.53 c -6.85,0.81 -14.03,1.87 -21.48,3.23 -115.13,20.99 -160.2,125.05 -155.52,178.66 0,0 38.82,-128.94 179.42,-141.36"
         style="fill:#f1694c;fill-opacity:1;fill-rule:nonzero;stroke:none"
         transform="matrix(0.13333333,0,0,-0.13333333,0,666.66667)" />
      <path
         id="path94"
         d="m 1290.44,3872.74 c 4.82,-3.65 9.27,-8.48 10.86,-14.51 0,0 -9.61,-3.21 -10.48,-13.98 -0.88,-10.78 10.48,-15.44 10.48,-15.44 0,0 -8.74,-14.56 -23.3,-6.7 -14.57,7.87 -12.16,35.32 2.33,41.07 0,0 -23.01,2.62 -31.46,-5.83 0,0 -1.93,8.48 7.69,15.97 9.91,7.72 23.86,7.01 33.88,-0.58"
         style="fill:#f1694c;fill-opacity:1;fill-rule:nonzero;stroke:none"
         transform="matrix(0.13333333,0,0,-0.13333333,0,666.66667)" />
      <path
         id="path95"
         d="m 1503.15,3948.91 c -1.35,-0.04 -2.68,-0.53 -3.78,-1.48 -21.98,-19.22 -44.59,-4.1 -44.82,-3.94 -2.74,1.89 -6.48,1.18 -8.36,-1.56 -1.87,-2.73 -1.19,-6.48 1.55,-8.36 10.47,-7.18 36.4,-15.44 59.55,4.8 2.5,2.19 2.75,5.99 0.57,8.49 -1.23,1.41 -2.98,2.1 -4.71,2.05"
         style="fill:#361f16;fill-opacity:1;fill-rule:nonzero;stroke:none"
         transform="matrix(0.13333333,0,0,-0.13333333,0,666.66667)" />
      <path
         id="path96"
         d="m 1638.43,3934.13 c -1.18,0.65 -2.58,0.91 -4.01,0.65 -28.69,-5.38 -40.49,19.14 -40.6,19.39 -1.4,3.02 -4.98,4.31 -7.99,2.91 -3,-1.4 -4.31,-4.98 -2.91,-7.99 5.37,-11.51 23.49,-31.79 53.71,-26.14 3.27,0.61 5.42,3.75 4.81,7.02 -0.35,1.84 -1.49,3.33 -3.01,4.16"
         style="fill:#361f16;fill-opacity:1;fill-rule:nonzero;stroke:none"
         transform="matrix(0.13333333,0,0,-0.13333333,0,666.66667)" />
      <path
         id="path97"
         d="m 1499.86,3877.42 c 0,0 -0.05,-23.42 -30.7,-27.31 -30.65,-3.88 -36.24,27.31 -36.24,27.31 0,0 17.41,16.32 39.92,16.8 22.5,0.48 27.02,-16.8 27.02,-16.8"
         style="fill:#ffffff;fill-opacity:1;fill-rule:nonzero;stroke:none"
         transform="matrix(0.13333333,0,0,-0.13333333,0,666.66667)" />
      <path
         id="path98"
         d="m 1639.91,3877.42 c 0,0 -0.04,-23.42 -30.04,-27.31 -29.99,-3.88 -34.01,27.28 -34.01,27.28 0,0 15.59,16.35 37.61,16.83 22.02,0.48 26.44,-16.8 26.44,-16.8"
         style="fill:#ffffff;fill-opacity:1;fill-rule:nonzero;stroke:none"
         transform="matrix(0.13333333,0,0,-0.13333333,0,666.66667)" />
      <path
         id="path99"
         d="m 1575.86,3877.39 c 0,0 16.07,17.65 33.26,20.81 17.19,3.17 29,-5.2 30.79,-20.81 0,0 -3.41,12.9 -20.61,14.48 -17.19,1.58 -43.44,-14.48 -43.44,-14.48"
         style="fill:#361f16;fill-opacity:1;fill-rule:nonzero;stroke:none"
         transform="matrix(0.13333333,0,0,-0.13333333,0,666.66667)" />
      <path
         id="path100"
         d="m 1432.92,3877.42 c 0,0 16.79,18.44 34.76,21.75 17.97,3.31 30.3,-5.44 32.18,-21.75 0,0 -3.57,13.47 -21.54,15.13 -17.97,1.65 -45.4,-15.13 -45.4,-15.13"
         style="fill:#361f16;fill-opacity:1;fill-rule:nonzero;stroke:none"
         transform="matrix(0.13333333,0,0,-0.13333333,0,666.66667)" />
      <path
         id="path101"
         d="m 1546.41,3876.75 14.14,-85.34 c 0,0 11.25,-0.87 26.83,5.48 0,0 -36.93,70.27 -40.97,79.86"
         style="fill:#f1694c;fill-opacity:1;fill-rule:nonzero;stroke:none"
         transform="matrix(0.13333333,0,0,-0.13333333,0,666.66667)" />
      <path
         id="path102"
         d="m 1451.21,3871.42 c 0,-13.44 8.6,-24.33 19.22,-24.33 10.62,0 19.23,10.89 19.23,24.33 0,13.43 -8.61,24.33 -19.23,24.33 -10.62,0 -19.22,-10.9 -19.22,-24.33"
         style="fill:#361f16;fill-opacity:1;fill-rule:nonzero;stroke:none"
         transform="matrix(0.13333333,0,0,-0.13333333,0,666.66667)" />
      <path
         id="path103"
         d="m 1586.04,3870.66 c 0,-13.02 8.39,-23.57 18.75,-23.57 10.36,0 18.75,10.55 18.75,23.57 0,13.02 -8.39,23.57 -18.75,23.57 -10.36,0 -18.75,-10.55 -18.75,-23.57"
         style="fill:#361f16;fill-opacity:1;fill-rule:nonzero;stroke:none"
         transform="matrix(0.13333333,0,0,-0.13333333,0,666.66667)" />
      <path
         id="path104"
         d="m 1385.42,3810.57 c 0,-10.6 12.55,-19.2 28.05,-19.2 15.49,0 28.05,8.6 28.05,19.2 0,10.61 -12.56,19.21 -28.05,19.21 -15.5,0 -28.05,-8.6 -28.05,-19.21"
         style="fill:#f1694c;fill-opacity:1;fill-rule:nonzero;stroke:none"
         transform="matrix(0.13333333,0,0,-0.13333333,0,666.66667)" />
      <path
         id="path105"
         d="m 1614.51,3819.78 c 0,-10.61 12.56,-19.21 28.05,-19.21 15.5,0 28.06,8.6 28.06,19.21 0,10.61 -12.56,19.21 -28.06,19.21 -15.49,0 -28.05,-8.6 -28.05,-19.21"
         style="fill:#f1694c;fill-opacity:1;fill-rule:nonzero;stroke:none"
         transform="matrix(0.13333333,0,0,-0.13333333,0,666.66667)" />
      <path
         id="path106"
         d="m 1556.6,3758.53 c 0,0 -45.31,-1.53 -63.64,-18.33 -18.33,-16.8 49.38,-21.89 63.64,-15.27 14.25,6.61 20.59,35.72 0,33.6"
         style="fill:#ffffff;fill-opacity:1;fill-rule:nonzero;stroke:none"
         transform="matrix(0.13333333,0,0,-0.13333333,0,666.66667)" />
      <path
         id="path107"
         d="m 1446.16,3886.6 c 0,0 -9.03,-4.29 -18.87,2.04 0,0 0.92,-9.26 5.63,-11.22 l 13.24,9.18"
         style="fill:#361f16;fill-opacity:1;fill-rule:nonzero;stroke:none"
         transform="matrix(0.13333333,0,0,-0.13333333,0,666.66667)" />
      <path
         id="path108"
         d="m 1629.53,3892.89 c 0,0 10.67,-8.82 18.76,-6.11 2.98,0.99 -8.35,-9.39 -8.35,-9.39 -2.7,9.84 -10.41,15.5 -10.41,15.5"
         style="fill:#361f16;fill-opacity:1;fill-rule:nonzero;stroke:none"
         transform="matrix(0.13333333,0,0,-0.13333333,0,666.66667)" />
      <path
         id="path109"
         d="m 1691.41,3440.7 c 0,0 144.18,-263.52 199.16,-484.49 l -148.66,-86.58 c 0,0 -59.08,118.12 -79.43,299.36 -20.35,181.23 28.93,271.71 28.93,271.71"
         style="fill:#7c6054;fill-opacity:1;fill-rule:nonzero;stroke:none"
         transform="matrix(0.13333333,0,0,-0.13333333,0,666.66667)" />
      <path
         id="path110"
         d="m 1610.37,4035.72 c 0,0 -144.05,-136.35 -275.74,-121.41 0,0 -14.25,-95.71 9.51,-132.37 0,0 -10.19,-10.08 -24.44,28.22 -14.26,38.31 -3.01,91.24 -10.33,107.2 0,0 -43.94,10.41 -72.81,-34.33 -28.86,-44.74 34.32,-99.37 75.7,-90.73 l 1.9,-82.26 c 0,0 -47.41,-17.7 -87.46,16.24 -40.05,33.94 -20.36,68.56 -20.36,68.56 0,0 -60.42,59.63 -63.13,142.45 -2.72,82.81 66.18,134.84 66.18,134.84 0,0 22.74,122.52 174.12,123.88 151.37,1.36 195.49,-44.12 195.49,-44.12 0,0 97.7,-16.63 125.24,-120.49 27.53,-103.85 -41.76,-159.4 -41.76,-159.4 0,0 -20.05,133.07 -52.11,163.72"
         style="fill:#361f16;fill-opacity:1;fill-rule:nonzero;stroke:none"
         transform="matrix(0.13333333,0,0,-0.13333333,0,666.66667)" />
      <path
         id="path111"
         d="m 1234.85,4086.39 c 0,0 -7.29,88.97 -91.72,85.21 -84.43,-3.76 -100.72,-100.49 -64.07,-145.29 36.66,-44.8 84.51,-34.62 120.15,0 35.64,34.62 35.64,60.08 35.64,60.08"
         style="fill:#361f16;fill-opacity:1;fill-rule:nonzero;stroke:none"
         transform="matrix(0.13333333,0,0,-0.13333333,0,666.66667)" />
      <path
         id="path112"
         d="m 1345.04,3736.26 -53.21,-110.81 c -1.9,-3.99 -6.94,-5.13 -10.46,-2.47 l -2.19,1.71 -174.38,134.76 c -2.66,2.09 -3.52,5.79 -1.9,8.84 l 60.16,110.14 1.42,2.57 c 2,3.79 7.03,4.75 10.36,1.99 l 168.4,-138.46 c 2.38,-2 3.13,-5.42 1.8,-8.27"
         style="fill:#ffffff;fill-opacity:1;fill-rule:nonzero;stroke:none"
         transform="matrix(0.13333333,0,0,-0.13333333,0,666.66667)" />
      <path
         id="path113"
         d="m 1712.06,2802.48 c -104.06,-52.56 -221.71,-82.11 -346.3,-82.11 -102.54,0 -200.42,20.05 -289.85,56.54 l -56.92,652.02 c 0,0 11.69,44.95 81.44,70.61 79.26,29.26 80.11,32.59 80.11,32.59 302.11,-152.05 429.83,-42 429.83,-42 l 66.52,-33.83 c 6.56,-3.33 11.69,-8.84 14.55,-15.59 15.67,-37.54 67.66,-167.73 72.89,-257.44 4.08,-71.46 -29.75,-263.52 -52.27,-380.79"
         style="fill:#94796b;fill-opacity:1;fill-rule:nonzero;stroke:none"
         transform="matrix(0.13333333,0,0,-0.13333333,0,666.66667)" />
      <path
         id="path114"
         d="m 1052.33,3473.15 c 0,0 -73.662,-29.25 -100.338,-222.03 -26.679,-192.78 1.801,-294.91 1.801,-294.91 l 146.647,174.09 c 0,0 50.2,266.88 -48.11,342.85"
         style="fill:#94796b;fill-opacity:1;fill-rule:nonzero;stroke:none"
         transform="matrix(0.13333333,0,0,-0.13333333,0,666.66667)" />
      <path
         id="path115"
         d="m 1271.3,3755.11 c -14.06,-8.12 -50.66,-33.71 -57.19,-44.5 -3.15,-5.19 -4.46,-11.1 -4.99,-15.88 l -9.2,4.6 c 4.64,19.83 13.21,39.67 13.21,39.67 0,0 14.59,7.81 22.73,19.34 8.15,11.55 5.09,20.76 5.09,20.76 -5.55,-3.21 -14.5,-9.05 -23.84,-15.67 0.14,0.18 0.3,0.34 0.43,0.53 8.14,11.54 5.09,20.75 5.09,20.75 -14.6,-8.43 -52.61,-35.01 -59.4,-46.21 -3.65,-6.04 -4.92,-13 -5.33,-18.19 l -2.57,1.29 c 4.35,20.98 14.01,43.38 14.01,43.38 0,0 14.6,7.8 22.74,19.34 8.15,11.54 5.09,20.76 5.09,20.76 -14.6,-8.43 -52.6,-35.02 -59.39,-46.21 -6.79,-11.2 -5.43,-25.8 -5.43,-25.8 l 5.43,-95.71 5.35,-105.22 c 0,0 -193.38,-442.57 -191.138,-550.5 2.242,-107.93 66.998,-150.7 66.998,-150.7 0,0 69.24,8.15 113.36,76.31 44.12,68.16 84.85,587.56 84.85,587.56 0,0 23.08,35.3 27.15,69.06 4.07,33.77 -11.43,118.97 -11.43,118.98 4.59,17.46 11.58,33.64 11.58,33.64 0,0 14.05,7.52 21.9,18.63 7.84,11.12 4.9,19.99 4.9,19.99"
         style="fill:#f57d60;fill-opacity:1;fill-rule:nonzero;stroke:none"
         transform="matrix(0.13333333,0,0,-0.13333333,0,666.66667)" />
      <path
         id="path116"
         d="m 1345.04,3736.26 -53.21,-110.81 c -1.9,-3.99 -6.94,-5.13 -10.46,-2.47 l -2.19,1.71 53.79,115.66 -169.91,138.08 1.42,2.57 c 2,3.79 7.03,4.75 10.36,1.99 l 168.4,-138.46 c 2.38,-2 3.13,-5.42 1.8,-8.27"
         style="fill:#d2d4d1;fill-opacity:1;fill-rule:nonzero;stroke:none"
         transform="matrix(0.13333333,0,0,-0.13333333,0,666.66667)" />
      <path
         id="path117"
         d="m 1163.06,3856.27 -7.38,-14.51 36.66,-29.52 8.4,14 -37.68,30.03"
         style="fill:#d2d4d1;fill-opacity:1;fill-rule:nonzero;stroke:none"
         transform="matrix(0.13333333,0,0,-0.13333333,0,666.66667)" />
      <path
         id="path118"
         d="m 2223.19,3419.38 -41.08,-7.64 -1.11,3.64 c 11.88,4.06 39.79,15.04 51.08,31.98 14.53,21.78 19.61,42.84 19.61,42.84 0,0 -25.17,-13.17 -34.85,-38.3 l -19.47,-3.62 c 7.8,4.82 15.04,10.68 19.57,17.48 14.53,21.79 19.61,42.85 19.61,42.85 0,0 -25.17,-13.17 -34.86,-38.31 l -24.54,-4.56 c 10.18,7.99 20.84,18.41 25.29,29.68 9.62,24.35 10.16,46.01 10.16,46.01 0,0 -21.84,-18.17 -26.02,-44.78 l -26.99,-11.28 -118.08,-36.87 0.9,17.04 c 0,0 4.45,2.67 16.92,12.47 12.47,9.8 28.03,50.47 28.03,50.47 0,0 -61.88,-29.1 -76.95,-61.16 -15.08,-32.06 -29.45,-111.33 -29.45,-111.33 0,0 -141.92,-341.49 -167.12,-435.57 v 0 c 0,0 -48.74,-18.86 -71.93,-50.78 0,0 49.55,-90.96 88.92,-100.47 0,0 114.04,21.72 168.34,154.77 54.31,133.05 76.19,401.78 76.19,401.78 l 113.99,62.34 c 0,0 34.43,9.8 46.31,27.61 11.87,17.81 16.03,35.03 16.03,35.03 0,0 -20.58,-10.77 -28.5,-31.32"
         style="fill:#f57d60;fill-opacity:1;fill-rule:nonzero;stroke:none"
         transform="matrix(0.13333333,0,0,-0.13333333,0,666.66667)" />
      <path
         id="path119"
         d="m 1715.48,3031.82 c 0,0 -66.77,12.85 -181.06,12.85 -114.28,0 -228.57,-21.42 -228.57,-21.42"
         style="fill:none;stroke:#7c6054;stroke-width:10;stroke-linecap:round;stroke-linejoin:round;stroke-miterlimit:10;stroke-dasharray:none;stroke-opacity:1"
         transform="matrix(0.13333333,0,0,-0.13333333,0,666.66667)" />
      <path
         id="path120"
         d="m 1595.14,4116.11 c 0,0 18.39,-33.91 16.81,-57.15"
         style="fill:none;stroke:#4b2e23;stroke-width:10;stroke-linecap:round;stroke-linejoin:round;stroke-miterlimit:10;stroke-dasharray:none;stroke-opacity:1"
         transform="matrix(0.13333333,0,0,-0.13333333,0,666.66667)" />
      <path
         id="path121"
         d="m 1566.9,4141.82 c 0,0 -74.62,-24.29 -115.69,-82.86"
         style="fill:none;stroke:#4b2e23;stroke-width:10;stroke-linecap:round;stroke-linejoin:round;stroke-miterlimit:10;stroke-dasharray:none;stroke-opacity:1"
         transform="matrix(0.13333333,0,0,-0.13333333,0,666.66667)" />
      <path
         id="path122"
         d="m 1220.85,4103.96 c 0,0 -12.14,-27.14 -12.86,-37.14 0,0 -39.87,-37.15 -44.93,-58.57"
         style="fill:none;stroke:#4b2e23;stroke-width:10;stroke-linecap:round;stroke-linejoin:round;stroke-miterlimit:10;stroke-dasharray:none;stroke-opacity:1"
         transform="matrix(0.13333333,0,0,-0.13333333,0,666.66667)" />
      <path
         id="path123"
         d="m 1070.85,4003.25 c 2.86,-2.14 42.3,-32.03 82.76,-6.84"
         style="fill:none;stroke:#4b2e23;stroke-width:10;stroke-linecap:round;stroke-linejoin:round;stroke-miterlimit:10;stroke-dasharray:none;stroke-opacity:1"
         transform="matrix(0.13333333,0,0,-0.13333333,0,666.66667)" />
      <path
         id="path124"
         d="m 1270.06,4116.11 c 0,0 92.58,85.35 245.79,40.35"
         style="fill:none;stroke:#4b2e23;stroke-width:10;stroke-linecap:round;stroke-linejoin:round;stroke-miterlimit:10;stroke-dasharray:none;stroke-opacity:1"
         transform="matrix(0.13333333,0,0,-0.13333333,0,666.66667)" />
      <path
         id="path125"
         d="m 1288.71,3939.81 c 0,0 39.76,-16.03 124.76,0 85,16.03 162.39,103.08 162.39,103.08"
         style="fill:none;stroke:#4b2e23;stroke-width:10;stroke-linecap:round;stroke-linejoin:round;stroke-miterlimit:10;stroke-dasharray:none;stroke-opacity:1"
         transform="matrix(0.13333333,0,0,-0.13333333,0,666.66667)" />
      <path
         id="path126"
         d="m 1254.38,3473.15 c 0,0 116.24,-48.48 235.28,-41.33 119.05,7.14 133.88,28.57 133.88,28.57"
         style="fill:none;stroke:#7c6054;stroke-width:10;stroke-linecap:round;stroke-linejoin:round;stroke-miterlimit:10;stroke-dasharray:none;stroke-opacity:1"
         transform="matrix(0.13333333,0,0,-0.13333333,0,666.66667)" />
    </g>
  </g>
</svg>
